<svg width="1512" height="263" viewBox="0 0 1512 263" fill="none" xmlns="http://www.w3.org/2000/svg">
<path d="M0 71L36.1439 67.5C72.2878 64 144.576 57 216.527 45.3C288.647 33.7 360.262 17.3 432.382 18.2C504.333 19 576.621 37 648.573 54.7C720.692 72.3 792.308 89.7 864.427 98.3C936.379 107 1008.67 107 1080.62 87.5C1152.74 68 1224.35 29 1296.47 12C1368.42 -5 1440.71 2.38419e-07 1476.86 2.5L1513 5V264H1476.86C1440.71 264 1368.42 264 1296.47 264C1224.35 264 1152.74 264 1080.62 264C1008.67 264 936.379 264 864.427 264C792.308 264 720.692 264 648.573 264C576.621 264 504.333 264 432.382 264C360.262 264 288.647 264 216.527 264C144.576 264 72.2878 264 36.1439 264H0V71Z" fill="#FFD3B7"/>
</svg>
