<svg width="1512" height="252" viewBox="0 0 1512 252" fill="none" xmlns="http://www.w3.org/2000/svg">
<path d="M-1 15.75L62.0417 18.7875C125.083 21.7125 251.167 27.7875 377.25 48.15C503.333 68.625 629.417 103.5 755.5 113.062C881.583 122.625 1007.67 106.875 1133.75 83.8125C1259.83 60.75 1385.92 30.375 1448.96 15.1875L1512 0V252H1448.96C1385.92 252 1259.83 252 1133.75 252C1007.67 252 881.583 252 755.5 252C629.417 252 503.333 252 377.25 252C251.167 252 125.083 252 62.0417 252H-1V15.75Z" fill="#FFE8D7"/>
</svg>
