<svg width="1512" height="154" viewBox="0 0 1512 154" fill="none" xmlns="http://www.w3.org/2000/svg">
<g clip-path="url(#clip0_10_11255)">
<path d="M0 26.0282L36.12 20.9672C72.24 15.9061 144.48 5.78406 216.384 7.23007C288.456 8.67608 360.024 21.6902 432.096 25.6667C504 29.6432 576.24 24.5822 648.144 16.846C720.216 9.18218 791.784 -1.22907 863.856 2.31365C935.76 5.78407 1008 23.1362 1079.9 23.2808C1151.98 23.3531 1223.54 6.29018 1295.62 1.59065C1367.52 -3.10888 1439.76 4.55497 1475.88 8.45919L1512 12.2911V154.723H1475.88C1439.76 154.723 1367.52 154.723 1295.62 154.723C1223.54 154.723 1151.98 154.723 1079.9 154.723C1008 154.723 935.76 154.723 863.856 154.723C791.784 154.723 720.216 154.723 648.144 154.723C576.24 154.723 504 154.723 432.096 154.723C360.024 154.723 288.456 154.723 216.384 154.723C144.48 154.723 72.24 154.723 36.12 154.723H0V26.0282Z" fill="#2C1917"/>
</g>
<defs>
<clipPath id="clip0_10_11255">
<rect width="1512" height="154" fill="white"/>
</clipPath>
</defs>
</svg>
