<svg width="1512" height="174" viewBox="0 0 1512 174" fill="none" xmlns="http://www.w3.org/2000/svg">
<path d="M0 37L36.12 33.2C72.24 29.3 144.48 21.7 216.384 12.7C288.456 3.7 360.024 -6.70002 432.096 5.49998C504 17.7 576.24 52.3 648.144 67.8C720.216 83.3 791.784 79.7 863.856 62.7C935.76 45.7 1008 15.3 1079.9 10.3C1151.98 5.29997 1223.54 25.7 1295.62 39.2C1367.52 52.7 1439.76 59.3 1475.88 62.7L1512 66V175H1475.88C1439.76 175 1367.52 175 1295.62 175C1223.54 175 1151.98 175 1079.9 175C1008 175 935.76 175 863.856 175C791.784 175 720.216 175 648.144 175C576.24 175 504 175 432.096 175C360.024 175 288.456 175 216.384 175C144.48 175 72.24 175 36.12 175H0V37Z" fill="#240C10"/>
</svg>
